<svg xmlns="http://www.w3.org/2000/svg" viewBox="0 0 252.3 252.3"><defs><style>.cls-1{fill:#159bd8;stroke:#1d1d1b;stroke-width:4px;}.cls-1,.cls-3,.cls-4{stroke-miterlimit:10;}.cls-2{fill:#fff;}.cls-3,.cls-4{fill:#1d1d1b;stroke:#fff;}.cls-4{stroke-width:3px;}</style></defs><title>Recurso 2</title><g id="Capa_2" data-name="Capa 2"><g id="Capa_1-2" data-name="Capa 1"><circle class="cls-1" cx="126.15" cy="126.15" r="124.15"/><path class="cls-2" d="M91.15,192.88A103.47,103.47,0,0,0,155.8,213c-2.47.9-50.76,17.59-89.2-13.92-3.47-2.84-37-31.3-31.64-74.39C39.54,88,68.9,68.63,77.24,63.66c38.26-22.8,78.28-7.44,83.15-5.47A98.8,98.8,0,0,0,95.33,40.25c7.82-2.86,40.1-13.68,71.48,2,38.62,19.35,65.28,73.61,40.49,118.25C185.68,199.51,133.67,215.31,91.15,192.88Z"/><path class="cls-3" d="M82.26,176.25l-5.44-14.59h8.59L88,171.13h.46l3.63-9.47h8l3.77,9.47h.46l2.41-9.47h8.46l-5.44,14.59H98.88l-2.69-6.69h-.42l-2.65,6.69Z"/><path class="cls-3" d="M115.09,176.25V155h8.82v8.33h.42a5.18,5.18,0,0,1,1.77-1.16,9,9,0,0,1,2.2-.58,19.05,19.05,0,0,1,2.39-.15,14.87,14.87,0,0,1,3.72.37,4.23,4.23,0,0,1,2.07,1.1,3.71,3.71,0,0,1,.9,1.79,11.11,11.11,0,0,1,.24,2.43v9.13h-8.74v-7.7a11,11,0,0,0-.09-1.6,1.76,1.76,0,0,0-.3-.83,1.05,1.05,0,0,0-.72-.31,11.58,11.58,0,0,0-1.3-.06,11,11,0,0,0-1.44.08,1.11,1.11,0,0,0-.77.39,2,2,0,0,0-.28.86,14.2,14.2,0,0,0-.07,1.5v7.67Z"/><path class="cls-3" d="M151,176.48a51.62,51.62,0,0,1-5.83-.27,13.51,13.51,0,0,1-3.6-.83,4.11,4.11,0,0,1-2.71-3.55,21.84,21.84,0,0,1-.17-2.85,18.69,18.69,0,0,1,.28-3.43,3.93,3.93,0,0,1,1.4-2.35,7.46,7.46,0,0,1,3.39-1.34,35.47,35.47,0,0,1,6.31-.43,44.49,44.49,0,0,1,5.32.25,10.88,10.88,0,0,1,3.18.81,3.59,3.59,0,0,1,1.67,1.41,5.23,5.23,0,0,1,.63,2.14q.12,1.26.12,2.94v1.12H147.32a5.61,5.61,0,0,0,.14,1.39,1.09,1.09,0,0,0,.68.73,5.15,5.15,0,0,0,1.71.28c.79,0,1.87.06,3.23.06H155c.78,0,1.61,0,2.51-.07l2.51-.12v3.58c-.62.09-1.44.19-2.44.28s-2.09.17-3.25.21S152.07,176.48,151,176.48Zm1.86-8.33v-.45a7.24,7.24,0,0,0-.12-1.49,1.31,1.31,0,0,0-.42-.79,1.61,1.61,0,0,0-.83-.31,10.59,10.59,0,0,0-1.42-.08,11.38,11.38,0,0,0-1.48.08,1.33,1.33,0,0,0-.82.32,1.48,1.48,0,0,0-.34.81,8,8,0,0,0-.1,1.46h6.27Z"/><path class="cls-3" d="M173.79,176.48a51.43,51.43,0,0,1-5.82-.27,13.32,13.32,0,0,1-3.6-.83,4.46,4.46,0,0,1-1.93-1.43,4.58,4.58,0,0,1-.79-2.12,22,22,0,0,1-.16-2.85,17.85,17.85,0,0,1,.28-3.43,3.92,3.92,0,0,1,1.39-2.35,7.46,7.46,0,0,1,3.39-1.34,35.6,35.6,0,0,1,6.32-.43,44.31,44.31,0,0,1,5.31.25,10.88,10.88,0,0,1,3.18.81A3.62,3.62,0,0,1,183,163.9a5.08,5.08,0,0,1,.62,2.14q.12,1.26.12,2.94v1.12H170.13a5.16,5.16,0,0,0,.14,1.39,1.08,1.08,0,0,0,.67.73,5.22,5.22,0,0,0,1.72.28c.79,0,1.86.06,3.23.06h2c.77,0,1.6,0,2.5-.07l2.51-.12v3.58c-.62.09-1.43.19-2.44.28s-2.09.17-3.25.21S174.88,176.48,173.79,176.48Zm1.86-8.33v-.45a8.17,8.17,0,0,0-.11-1.49,1.36,1.36,0,0,0-.42-.79,1.61,1.61,0,0,0-.84-.31,10.42,10.42,0,0,0-1.41-.08,11.55,11.55,0,0,0-1.49.08,1.32,1.32,0,0,0-.81.32,1.49,1.49,0,0,0-.35.81,9.25,9.25,0,0,0-.09,1.46h6.27Z"/><path class="cls-3" d="M185,176.25V155h8.91v21.26Z"/><path class="cls-3" d="M205.38,176.48c-1,0-2.15,0-3.37,0s-2.4-.09-3.53-.15-2.16-.12-3.09-.2V172.5l1.79.08,1.83.07,1.77,0h1.53c1.49,0,2.55,0,3.18,0a2.17,2.17,0,0,0,1.19-.28.75.75,0,0,0,.23-.58.72.72,0,0,0-.12-.46,1.16,1.16,0,0,0-.6-.23c-.33-.06-.88-.11-1.65-.17l-5.48-.4a6.1,6.1,0,0,1-2.83-.75A3,3,0,0,1,195,168.2a7.63,7.63,0,0,1-.32-2.31,3.49,3.49,0,0,1,.81-2.42,4.83,4.83,0,0,1,2.18-1.33,15.38,15.38,0,0,1,3.23-.57c1.24-.1,2.56-.14,3.95-.14,1.08,0,2.18,0,3.3,0s2.16.09,3.13.15,1.79.12,2.44.2v3.58c-.81,0-1.63-.08-2.49-.1l-2.32-.08-1.69,0c-1.3,0-2.27,0-2.91,0a3.21,3.21,0,0,0-1.23.21.62.62,0,0,0-.28.55.94.94,0,0,0,.1.45c.06.12.24.2.56.23l1.39.15,5.11.4a12.41,12.41,0,0,1,2.69.46,3.1,3.1,0,0,1,1.77,1.24,5,5,0,0,1,.6,2.76,4.3,4.3,0,0,1-.72,2.61,4.15,4.15,0,0,1-2,1.43,12.75,12.75,0,0,1-3.07.6C208,176.43,206.74,176.48,205.38,176.48Z"/><path class="cls-4" d="M40.81,152.43c-3,0-6.24-.09-9.77-.25s-7-.45-10.39-.82-6.4-.8-9-1.28l3.49-14.23,9.21.62c3.15.2,6.18.36,9.09.46s5.39.15,7.47.15a63.14,63.14,0,0,0,7.72-.36,7,7,0,0,0,4.1-1.68,10.83,10.83,0,0,0,2.37-4.4,9.93,9.93,0,0,0,.31-1.85q.06-.91.06-1.53a2.85,2.85,0,0,0-1.86-3,21.31,21.31,0,0,0-6.35-.66H33.34l4-15H51.27a26.7,26.7,0,0,0,5.6-.46,5.24,5.24,0,0,0,3.05-1.8,11.33,11.33,0,0,0,1.81-3.88c.16-.62.29-1.18.37-1.69a10.23,10.23,0,0,0,.13-1.59A2.45,2.45,0,0,0,61,96.87,8.86,8.86,0,0,0,57.31,96c-1.7-.14-4-.2-6.91-.2q-3.61,0-8.09.25l-8.84.51c-2.91.17-5.52.4-7.84.67l3.73-14.43c2.66-.54,5.58-1,8.78-1.33s6.43-.6,9.71-.77,6.2-.25,8.77-.25A86,86,0,0,1,75.36,82q7,1.65,10.27,4.86a10.88,10.88,0,0,1,3.23,8,24.86,24.86,0,0,1-.37,4.29,24,24,0,0,1-1,3.89,15.87,15.87,0,0,1-7.16,8.49A33.45,33.45,0,0,1,69,115.49v.41a20.7,20.7,0,0,1,8.9,3.74q3,2.51,3.05,7.93a18.66,18.66,0,0,1-.25,2.86,30.22,30.22,0,0,1-.75,3.28,26.19,26.19,0,0,1-3.11,7.77,17.26,17.26,0,0,1-6.29,5.89,36.35,36.35,0,0,1-11.32,3.73A103.53,103.53,0,0,1,40.81,152.43Z"/><path class="cls-4" d="M115.88,152.43a131.34,131.34,0,0,1-13.88-.66,37.41,37.41,0,0,1-10.4-2.46,13.54,13.54,0,0,1-6.35-5.07,15.39,15.39,0,0,1-2.11-8.49,51,51,0,0,1,.87-8.49q.87-5,2.61-11.56a142.64,142.64,0,0,1,4.61-14.22A37.07,37.07,0,0,1,96.89,91.4a25.51,25.51,0,0,1,8-6.5,36.09,36.09,0,0,1,11.51-3.48,111.55,111.55,0,0,1,16.19-1q3.74,0,8.71.25t10.27.77c3.53.34,7,.75,10.4,1.23L158.2,97.08l-13.75-.93q-6.42-.41-9.9-.4a71.89,71.89,0,0,0-7.72.35,17.64,17.64,0,0,0-5.23,1.33,11.16,11.16,0,0,0-3.67,2.72,14.06,14.06,0,0,0-2.61,4.6c-.71,1.91-1.43,4.23-2.18,7h.75a25.2,25.2,0,0,1,3.29-1.95,27.67,27.67,0,0,1,5.92-2,41.43,41.43,0,0,1,9.71-.92A56.24,56.24,0,0,1,145.38,108a14.55,14.55,0,0,1,8,4.51q2.81,3.27,2.8,9.51c0,1.09-.06,2.29-.19,3.58a20.51,20.51,0,0,1-.93,4.3,49.92,49.92,0,0,1-3.92,10.13,18.85,18.85,0,0,1-6.54,7,31.72,31.72,0,0,1-11.08,4A95.33,95.33,0,0,1,115.88,152.43Zm1.49-15a54.16,54.16,0,0,0,5.79-.26,11.09,11.09,0,0,0,3.73-1,5.74,5.74,0,0,0,2.37-2.25,14.82,14.82,0,0,0,1.56-4.09,14.16,14.16,0,0,0,.49-2.2,12.42,12.42,0,0,0,.13-1.69,3.24,3.24,0,0,0-1-2.66,6.43,6.43,0,0,0-3.17-1.13,45.78,45.78,0,0,0-5.92-.3,36.29,36.29,0,0,0-5.6.36,9.48,9.48,0,0,0-3.48,1.12,5.15,5.15,0,0,0-1.93,2.1,21.11,21.11,0,0,0-1.31,3.27c-.17.69-.35,1.47-.56,2.36a9.91,9.91,0,0,0-.31,2.25,3.3,3.3,0,0,0,1.06,2.71,6,6,0,0,0,3.11,1.12A41.78,41.78,0,0,0,117.37,137.39Z"/><path class="cls-4" d="M181.23,152.43c-2.82,0-6-.09-9.52-.25s-7-.43-10.46-.77-6.58-.72-9.4-1.13L155.34,136q4.23.3,8.78.56t9,.41q4.41.15,7.53.15a65.78,65.78,0,0,0,7-.3,14.34,14.34,0,0,0,4.24-1,5.26,5.26,0,0,0,2.42-2.25,16.37,16.37,0,0,0,1.5-4.09c.16-.68.31-1.3.43-1.84a7.06,7.06,0,0,0,.19-1.64,3,3,0,0,0-1.12-2.56,8.19,8.19,0,0,0-3.74-1.12,62.46,62.46,0,0,0-7.09-.31c-2.32,0-4.92,0-7.78.1s-5.77.19-8.71.36-5.67.36-8.16.56l10.71-41.74h57l-4,15.65H188.33l-2.86,10.74q3.1-.4,6.72-.61c2.4-.14,4.85-.2,7.34-.2q8.83,0,13.95,1.74t7.28,5a13.91,13.91,0,0,1,2.18,7.88,23.53,23.53,0,0,1-.32,3.78,40.76,40.76,0,0,1-.93,4.3,50.57,50.57,0,0,1-4,10.13,19.84,19.84,0,0,1-6.6,7.21,31.27,31.27,0,0,1-11.45,4.2A101.19,101.19,0,0,1,181.23,152.43Z"/></g></g></svg>