<svg id="Capa_1" data-name="Capa 1" xmlns="http://www.w3.org/2000/svg" viewBox="0 0 218.09 142.96"><defs><style>.cls-1{fill:#110b07;}.cls-2{fill:#ec9248;}.cls-3{fill:#fff;}</style></defs><title>autoConfig</title><path class="cls-1" d="M238.76,282.1a10.74,10.74,0,0,1-.4-6.55c1.61-7.7,6.19-12.64,14-14.22,4.58-.93,9.3-4,12.81-7.14-2.45.15-4.79.31-7.13.43-.5,0-.63.4-.85.68a18.54,18.54,0,0,1-29.57.33,2.53,2.53,0,0,0-2.27-1.13c-4.12.07-8.23.05-12.35.06-3,0-5.87-.51-8.23-2.63-.77-.69-1.81-1-2.59-1.69a7,7,0,0,1-2.12-3.48c-.17-.63.26-1.6-.83-1.88a1.9,1.9,0,0,1,0-.76q1.43-8.44,2.88-16.9c.59-3.36,3-5.32,5.56-7.19,2.87-2.14,6.35-2.81,9.7-3.71a256.49,256.49,0,0,1,30.22-6,51.41,51.41,0,0,0,19.31-6.33c1.74-1,3.62-1.83,5.54-2.78a19.43,19.43,0,0,0-5.86-1.7c-3.18-.5-6.39-.84-9.54-1.53-6.81-1.5-10.83-5.75-12.34-12.44a35.32,35.32,0,0,1-.25-14.19,11.88,11.88,0,0,1,1.62-4.13,3.6,3.6,0,0,1,6-.61,19.56,19.56,0,0,1,2.87,4.52c1.2,2.44,2.23,5,3.61,7.32a4.71,4.71,0,0,0,4.1,2.34c3.34.18,7.73-2.55,9.15-5.56.73-1.54.62-2.77-1.17-4.32a10.47,10.47,0,0,1-2.36-3.18c-1.29-2.5-3.58-4.57-4.55-7.34a3.68,3.68,0,0,1,3.24-5,10.75,10.75,0,0,1,4.14.39,32.69,32.69,0,0,1,11.17,5.78c3.6,2.82,5.17,6.75,6,11.05.54,2.63,1,5.27,1.61,7.89,1,4.63,3.91,8.18,6.78,11.74a.76.76,0,0,0,.8.27c8.19-1.15,16.44-1.08,24.68-1.17,1.31,0,2.61.05,3.92.06a1.67,1.67,0,0,0,1.43-.63c3.9-4.56,6.61-9.64,7.19-15.74a64.19,64.19,0,0,1,1.38-8.36,16,16,0,0,1,11.49-11.73,35.27,35.27,0,0,1,15.6-.45,7.33,7.33,0,0,1,4.13,2.25,3.89,3.89,0,0,1-.12,5.38,18.2,18.2,0,0,1-5.27,3.23c-1.92.93-3.9,1.75-5.77,2.81a5.68,5.68,0,0,0-2.7,6.28c.77,3.1,2.05,5.92,5.32,7.34,1.55.67,2.74.53,4.27-1a28.26,28.26,0,0,1,6.27-4.63c1.66-1,3.11-2.25,5-2.57a3.47,3.47,0,0,1,4.18,2.82,11,11,0,0,1-.73,6,32.4,32.4,0,0,1-5.29,9.77,14.6,14.6,0,0,1-6,4.59l2.91.84c6.76,1.87,13.48,3.88,20.4,5.07a102.36,102.36,0,0,1,15.57,3.56c2.46.83,4.79,1.88,6.36,4.11a5.58,5.58,0,0,1,1,2.28,10.64,10.64,0,0,0,1.39,3.73,3.15,3.15,0,0,1,.14,3.06,1.65,1.65,0,0,0,.47,2.32,7.47,7.47,0,0,1,2.43,5.44,30.76,30.76,0,0,1-3.47,16.57,9.26,9.26,0,0,1-6.07,4.74c-5.76,1.55-11.72,1.7-17.53,2.9a17.36,17.36,0,0,1-3.22.28c-1.45,0-1.13,1.17-2.51,2.49-3.18,3-3.89,5.66-7.26,6.66a4.08,4.08,0,0,0-1,.53s0,.07-.05.1c9.95,5.48,12.85,12.93,9.27,23.48l-5.57,3.32-.28,0c.33-.57,6.16-10.9,1.72-17.6a16.58,16.58,0,0,0-4.64-4.36,38.18,38.18,0,0,0-8.7-3.47,25.79,25.79,0,0,1-7.41-3.23,48.61,48.61,0,0,1-8.11-7,2.71,2.71,0,0,0-2-.9c-5.08,0-10.15,0-15.23,0h-1.62c4,3.92,7.87,7.58,11.59,11.39,5.1,5.25,9.39,10.95,10.95,18.41,1.14,5.45,5,8.69,10.28,10.11a12.81,12.81,0,0,0,11.95-2.76,3,3,0,0,1,.65-.44c1.16-.55,5.44-3.91,6.43-3.47-3,3.19-3.54,9.05-13.71,10.59A17.55,17.55,0,0,1,355.44,290a14.49,14.49,0,0,1-3.89-7.57c-.92-5.05-3.55-9.16-6.71-13-3.6-4.42-7.91-8.15-11.94-12.16l-.25-.24c-1.3-1.25-2.4-3-3.95-3.62s-3.63-.19-5.47-.19l-26.75,0a1.62,1.62,0,0,0-1.35.44c-5,5.23-10.22,10.2-14.94,15.68a25.18,25.18,0,0,0-5.31,9.95,32.33,32.33,0,0,1-4.72,10.91A15.9,15.9,0,0,1,259,296.61a17.34,17.34,0,0,1-15.31-6c-1.29-1.48-2.74-2.82-3.46-4.71m-32-60.63a1.85,1.85,0,0,0,.54-.09,26.1,26.1,0,0,1,8.63-2.54,17.88,17.88,0,0,1,3.93-.31.9.9,0,0,1,.76,1.48,12.36,12.36,0,0,1-1.42,1.8c-.91,1-.28.86,5.25,1.38a19.8,19.8,0,0,1,5.77,1.58,2.37,2.37,0,0,0,2.09-.17c1.42-.63,2.73-1.77,4.49-1.1.22.08.5-.22.6-.2.8.2,1.46.19,1.8-.74,0-.09.35-.08.55-.09a18.56,18.56,0,0,1,18.95,13.4,28.77,28.77,0,0,1,.68,8.47c0,.75.16,1,1,.94,1.15-.11,2.29-.24,3.44-.28,8-.28,15.92-.72,23.89-.72q29.19,0,58.37,0c.61,0,1.23,0,1.84,0s.87-.15.83-.83c-.06-1.35,0-2.69,0-4a17.8,17.8,0,0,1,3.61-10.57,18.3,18.3,0,0,1,22.59-5.41c5.84,3,9.16,7.72,10.22,14.35a17.66,17.66,0,0,1,.09,4.11c0,.79.11,1.06.86.91,1.2-.25,2.43-.37,3.63-.6,5.54-1.09,11.13-1.91,16.53-3.6a2.54,2.54,0,0,0,1.71-1.39,28.28,28.28,0,0,0,2.21-14.41,1.15,1.15,0,0,0-.48-1c-2.16-1.16-3-3.28-3.8-5.37a1,1,0,0,0-1.07-.62c-3.47.46-7,.61-10.46.78a2,2,0,0,1-1.41-.34c-1.19-.94-2.39-1.87-3.55-2.86a1.46,1.46,0,0,0-.87-.33c-1.65,0-3.31,0-5-.14-.7,0-.86.23-.84.85,0,1,0,2,0,3a1.54,1.54,0,0,1-.86,1.63,9.87,9.87,0,0,1-4.86,0,33.1,33.1,0,0,1,4-.15,1.31,1.31,0,0,0,1.31-1.3c0-1.1,0-2.2,0-3.31,0-.56-.15-.85-1.12-.67a13.71,13.71,0,0,1-4.78.13c-1.51-.26-2.19-.44-2.14.37.1,1.59-.34,3.23.49,4.79-.79-.1-.79-.65-.81-1.13,0-1.11-.05-2.23,0-3.34,0-.63-.09-.94-.87-.94-2.88,0-5.76-.15-8.63-.15-11.23,0-22.45-.06-33.67.39-5.44.21-10.88.34-16.32.46-.74,0-1,.31-1.07,1,0,.5-.07,1-.11,1.5a.6.6,0,0,1-.68.62c-.53,0-.27-.44-.25-.7a5.24,5.24,0,0,1,.14-1.26c.36-1-.14-1.1-1-1.08-6.61.23-13.22.34-19.83.67-9.13.45-18.26.79-27.41.88-7.34.06-14.67.32-22,.52-3.29.09-6.58.31-9.88.16.95-.14,1.9-.28,2.85-.36,9-.8,18-.93,27.06-1.34,5.6-.26,11.21-.41,16.8-.82Q296.72,216,312.88,215c1.3-.07,1.8-.44,1.93-1.69.09-.9.07-1.28-1-1.18-3.44.29-6.9.46-10.35.66l-39.23,2.33c-1.15.07-1.31-.13-1-1.22a1.92,1.92,0,0,1,.4-.69,24.6,24.6,0,0,1,5-4.54,108.35,108.35,0,0,1,12.56-6.53c5.78-2.61,11.71-4.89,18.06-5.62a170.76,170.76,0,0,1,33.37-.91c3.08.25,6.3.08,9.15,1.71a.56.56,0,0,0,.34,0,6.88,6.88,0,0,1,2.56.08c4.07.73,8.1,1.62,12.11,2.63A114.65,114.65,0,0,1,368,203.17c.65.24,1.51.38,1.67,1.23s-.64,1.36-1.24,1.78a19.73,19.73,0,0,1-8,3.39,78.35,78.35,0,0,1-10.5,1c-11.05.39-22.1.94-33.16,1.42-1.13.05-1.66.8-1.46,2.35.12.95.95.41,1.38.39,10.17-.49,20.34-1.1,30.51-1.53,7.87-.34,15.75-.55,23.62-.69,9.61-.18,19.22-.22,28.83-.36a70,70,0,0,0,7.76-.22,5.07,5.07,0,0,0-2.23-1.32,50.85,50.85,0,0,0-9.3-2.56,273.74,273.74,0,0,1-30.64-7.89c-3.33-1-6.69-1.92-10.09-2.66A92.56,92.56,0,0,0,345,195.74c-.74-.08-1-.42-.92-1.13.09-.94.81-.37,1.32-.51a5.16,5.16,0,0,1,3.25,0c4.12,1.57,8,2.15,12,.76a14.45,14.45,0,0,0,5.77-3.22,27.32,27.32,0,0,0,6.34-11.22,4.85,4.85,0,0,0,.29-2,15,15,0,0,0-3.26,2,85.34,85.34,0,0,0-7.22,5.31,4.68,4.68,0,0,1-4.76.82,11.26,11.26,0,0,1-2.09-1,16,16,0,0,1-7.31-10.19c-1.08-4.06.34-7.21,4-9.28,1.07-.6,2.19-1.11,3.29-1.65a38.79,38.79,0,0,0,6.4-3.39c.34-.26.93-.49.78-1s-.69-.42-1.09-.5a29.48,29.48,0,0,0-15.7.75,11.69,11.69,0,0,0-7.65,8.13,47.77,47.77,0,0,0-1.45,8.16,28.63,28.63,0,0,1-4,12.35c-.85,1.35-1.76,2.66-2.73,4.1,4.15.33,8.21.34,12.27.88-1.33,1.47-1.33,1.46-2.23,1.37-4.85-.5-9.73-.72-14.61-.78a225.73,225.73,0,0,0-24.25.77,47.24,47.24,0,0,0-10,2,124.34,124.34,0,0,0-20.2,8.88,98.22,98.22,0,0,1-9.52,4.89c-5.86,2.32-12,3.39-18.22,4.34a217.7,217.7,0,0,0-30.89,7.1,9.3,9.3,0,0,0-4.4,2.82l-.07.07s0,0,0,0Zm61.27-64.42a20.49,20.49,0,0,0,2.4,3.83c1.73,2.4,3.61,4.69,5.25,7.16a4.44,4.44,0,0,1,.56,4.05,12.78,12.78,0,0,1-1.27,2.76,15.85,15.85,0,0,1-9.32,6.7c-4.45,1.37-7.67,0-10-4-.5-.86-.92-1.77-1.36-2.67a48.13,48.13,0,0,0-3.5-6.72c-.27-.4-.57-1-1.07-.91s-.44.74-.54,1.19a31.44,31.44,0,0,0,.1,13.38c.95,4.28,3.2,7.63,7.39,9.36,3,1.23,6.18,1.53,9.33,1.95A30,30,0,0,1,278,199.85a1.36,1.36,0,0,0,1.3,0,92.4,92.4,0,0,1,14-4.86c.8-.21.85-.35.33-1a28.33,28.33,0,0,1-4.2-6.71c-1.79-4.05-2.1-8.47-3.18-12.7-.69-2.71-1.59-5.28-3.68-7.28a27.21,27.21,0,0,0-9.11-5.49A11.52,11.52,0,0,0,269.47,160.86Zm21.18,90.86h-3.72c-4.49,0-9,.52-13.46.2a1.38,1.38,0,0,0-1.32.56,23.46,23.46,0,0,1-4.75,4.64,32.2,32.2,0,0,1-14.72,7.66c-8.14,1.64-14.28,12.35-8.35,21.2a13.92,13.92,0,0,0,22.62.81,26.26,26.26,0,0,0,3.59-7.92c1.13-3.71,2.3-7.38,4.68-10.55,3-4.07,6.72-7.56,10.2-11.23C287.1,255.33,288.82,253.6,290.65,251.72Zm77.3-47c-.86-.3-1.42-.52-2-.69-5.66-1.7-11.42-3-17.18-4.31a114.88,114.88,0,0,0-28-3.09c-.88,0-1.18.22-1.17,1.14.06,3.81,0,7.61,0,11.41,0,.74.11,1.13,1,1.08,4.1-.23,8.2-.44,12.3-.6,8.33-.33,16.65-.65,25-1.24A21.92,21.92,0,0,0,368,204.75Zm-93.67,2.47c3.1.51,3.55,1.77,3.29,4.47-.12,1.23.3,1.06,1.05,1q11-.64,22.09-1.29c2.91-.17,5.82-.37,8.74-.52a1.23,1.23,0,0,0,1.12-.88c1.17-4.06,2.35-8.11,3.59-12.14.28-.93,0-1-.81-1-1.34.11-2.69.15-4,.22a101.25,101.25,0,0,0-11,1C289.81,199.61,282.09,203.19,274.28,207.22Zm-41.93,21.95c-4.17-.84-8.11-1.63-12-2.44a.88.88,0,0,0-.95.24,2,2,0,0,1-1.57.6A30.38,30.38,0,0,0,206.63,231c-.36.18-.73.3-.76.91a27.73,27.73,0,0,1-1.07,6.9c-.3,1-.09,1.17.5,1.07.76-.13,1.52-.24,2.27-.39a4.21,4.21,0,0,1,3.93,1,15.28,15.28,0,0,0,2.76,2.24c.17.09.34.21.31.44s-.31.31-.53.35c-1.24.24-2.49.44-3.73.72-1.71.39-3.52.43-5.08,1.36-.23.14-.55.26-.48.56s.33.29.52.4c.42.25,1,.22,1.3.69,1,1.65,2.61,1.85,4.31,1.85,4,0,7.91-.05,11.87,0,1,0,1.2-.3,1.18-1.22-.05-2.67-.23-5.34.55-8A19.09,19.09,0,0,1,232.35,229.17Zm10.08,27.94a12.66,12.66,0,1,0-12.7-12.69A12.54,12.54,0,0,0,242.43,257.11Zm126.1-.06c6.27.44,12.54-5.19,12.7-12.23a12.75,12.75,0,0,0-12-13A12.61,12.61,0,0,0,355.94,245,12.47,12.47,0,0,0,368.53,257.05ZM265.69,213.37a45,45,0,0,0,5.68-.34,2.31,2.31,0,0,0-2.29-.2,3.54,3.54,0,0,1,.51-1.94c.13-.2.45-.56.1-.8s-.48,0-.72.22A19.31,19.31,0,0,0,265.69,213.37Zm49.47-5.84c-.12,1-.23,1.92-.35,2.89C315.46,209.5,315.22,208.51,315.16,207.53Z" transform="translate(-199.19 -153.8)"/><path class="cls-2" d="M208.2,225.28l-.06.14s0,0,0,0l.07-.07Z" transform="translate(-199.19 -153.8)"/><path class="cls-1" d="M372.44,284l.26-.15v.24Z" transform="translate(-199.19 -153.8)"/><path class="cls-1" d="M244.34,224c6.7-.41,11.69,2.72,15.68,7.76a24.91,24.91,0,0,1,2.35,4,1.22,1.22,0,0,0,1.31.79c8.4-.32,16.81-.59,25.21-.91,7.64-.28,15.27-.62,22.9-.9.84,0,1-.29,1-1.08a80,80,0,0,1,.71-11.26c0-.1.1-.19.19-.36.42.34.26.78.27,1.15.08,3.33.17,6.67.21,10,0,1,.25,1.42,1.44,1.36,6.83-.34,13.66-.65,20.47-1.24,4.94-.43,9.75-1.3,13.95-4.46a9.21,9.21,0,0,1-3.95,2.8,37.17,37.17,0,0,1-11.3,2.79q-9.61,1.06-19.25,2c-.88.09-1.12.38-1,1.22.2,1.08.35,2.18.47,3.28.07.67.33.9,1,.9,5.92,0,11.84-.06,17.76-.09a39.55,39.55,0,0,0,4.49,0c.2,0,.4,0,.39.29s-.2.2-.34.18c-2.64-.5-5.28-.12-7.91-.08-4.65.06-9.3.26-13.94.35-.87,0-1.24.19-.87,1.09.18.45.16.89-.44.93s-1.24.44-1.28-.43c-.06-1.5-.87-1.46-2-1.42-7.06.24-14.14.32-21.2.59-4.41.17-8.83.41-13.09,1.79a5.66,5.66,0,0,1-2.17.15c-.28,0-.58-.16-.61-.44s.22-.39.39-.51a11.31,11.31,0,0,1,4.32-1.5c5.25-1,10.55-.93,15.85-.93,5.65,0,11.31,0,17,0,.88,0,1.25-.15,1-1.13a12,12,0,0,1-.33-2.86c0-.91-.28-1.2-1.19-1.1-2.79.3-5.58.55-8.38.79l-17.79,1.53-20.79,1.75a7.2,7.2,0,0,0-.8.07c-.87.14-1.09-.15-1.15-1.07-.14-2.4-1.38-4.45-2.58-6.43-2.78-4.59-6.62-7.82-12-9A23.23,23.23,0,0,0,244.34,224Z" transform="translate(-199.19 -153.8)"/><path class="cls-1" d="M258.13,288.53c-1.13-.84-2.49-.27-3.93.12a2,2,0,0,1-2.15-1.24,1.41,1.41,0,0,0-1.38-.79,2.38,2.38,0,0,1-2.67-2.51,1.64,1.64,0,0,0-.89-1.43,2.36,2.36,0,0,1-.94-3.46,1.53,1.53,0,0,0,0-1.6A2.51,2.51,0,0,1,247,274a1.53,1.53,0,0,0,.73-1.41,2.31,2.31,0,0,1,2.25-2.5,2.14,2.14,0,0,0,1.94-1.12,2.18,2.18,0,0,1,3-.92,2.33,2.33,0,0,0,2.26,0,2.19,2.19,0,0,1,3.1.8,2,2,0,0,0,1.76,1,2.17,2.17,0,0,1,2.37,2.27,2,2,0,0,0,1.06,1.73,2.24,2.24,0,0,1,.88,3.19,2,2,0,0,0,0,1.92,2.36,2.36,0,0,1-.92,3.39,1.59,1.59,0,0,0-.83,1.48,2.16,2.16,0,0,1-2.15,2.48,2.33,2.33,0,0,0-2,1.27A2.12,2.12,0,0,1,258.13,288.53Zm-4.54-2.85a2.58,2.58,0,0,1,2.29-.6,2,2,0,0,0,2.76-.79c.51-.75,1.72-.37,2.27-.85s.22-1.67.82-2.41c1-1.21,1-1.23.72-2.69a2.79,2.79,0,0,1,.28-1.9.69.69,0,0,0-.08-.93c-1.11-1.18-2.59-2-3.59-3.26-.22-.29-.47,0-.7.08a2.87,2.87,0,0,1-2.86.07c-.57-.32-.86-.16-1.15.35a2.76,2.76,0,0,1-2.37,1.42c-.68,0-.83.29-.82.89a2.57,2.57,0,0,1-1.26,2.32c-.48.32-.72.56-.34,1.15a2.71,2.71,0,0,1,.09,2.75c-.14.29-.28.58,0,.85,1.13,1.26,2.7,2.05,3.71,3.45C253.37,285.65,253.51,285.65,253.59,285.68Z" transform="translate(-199.19 -153.8)"/><path class="cls-1" d="M252.15,241.63a2.71,2.71,0,0,0,.92-2.21c.55.67.23,1.25,0,1.76-1,2.37-4.83,3.08-6.26,1.2a7.1,7.1,0,0,1-.33-7.11,1.72,1.72,0,0,1,2.16-.86,1.71,1.71,0,0,0-1.12.28c-.33.26-.5.47,0,.76A10.22,10.22,0,0,1,252.15,241.63Z" transform="translate(-199.19 -153.8)"/><path class="cls-1" d="M232.52,249.63c.9-.1.92-.39.64-.92a9.19,9.19,0,0,1-.79-6.68c.12-.49-.59-.85-.11-1.13a3,3,0,0,1,2.23-.2c2.95.66,4,2.71,2.65,5.41-.88,1.76-2,3.25-4,3.78C233,249.9,233,249.83,232.52,249.63Z" transform="translate(-199.19 -153.8)"/><path class="cls-1" d="M234.47,236.5c.54.56.83.25,1.18-.05a9.57,9.57,0,0,1,6.19-2.43c.08,0,.17,0,.23,0,.45.22.68-.83,1.14-.24a3,3,0,0,1,.57,1.72c.09,1.4-.05,2.76-1.26,3.64C240.64,240.49,235.19,239.2,234.47,236.5Z" transform="translate(-199.19 -153.8)"/><path class="cls-1" d="M237,254.85c-1.48-1.52-1.54-3.2-.06-4.9,1.32-1.51,2.72-2,4.64-.71a7.43,7.43,0,0,1,3.16,4.38,2.22,2.22,0,0,1-.24,1.84c.14-1.14-.31-1.28-1.3-1.15a9.68,9.68,0,0,1-6-1.24c-.25-.14-.47-.4-.81-.34-.28.85.5,1.4.58,2.14Z" transform="translate(-199.19 -153.8)"/><path class="cls-1" d="M253,245.22a1.35,1.35,0,0,0-.75,1.15,9.7,9.7,0,0,1-3.2,5.43c-.21.18-.61.34-.48.69s.54.28.82.24c.63-.08,1.25-.24,1.81-.35a3.06,3.06,0,0,1-4.4-.42c-1.46-1.53-1.66-3.53-.47-4.84A6.79,6.79,0,0,1,253,245.22Z" transform="translate(-199.19 -153.8)"/><path class="cls-1" d="M241.82,240.11c.7.09,1.21.34,1.17,1s-.31,1.13-1,1.11c-.57,0-1.12-.33-1.14-.9A1.23,1.23,0,0,1,241.82,240.11Z" transform="translate(-199.19 -153.8)"/><path class="cls-1" d="M245.56,246.2c-.17.49-.27,1.07-.94,1.14a1,1,0,0,1-1.14-1,.93.93,0,0,1,1-1.07C245.07,245.18,245.38,245.63,245.56,246.2Z" transform="translate(-199.19 -153.8)"/><path class="cls-1" d="M246,242.66c-.16.63-.25,1.26-1,1.28a1,1,0,0,1-1-1,.93.93,0,0,1,1-1A1.05,1.05,0,0,1,246,242.66Z" transform="translate(-199.19 -153.8)"/><path class="cls-1" d="M239.36,242.59c.67.06,1.15.3,1.11,1s-.29,1.1-1,1.12-.9-.53-1-1S238.84,242.68,239.36,242.59Z" transform="translate(-199.19 -153.8)"/><path class="cls-1" d="M242,246.69c-.09.62-.38,1.12-1.05,1.12s-.9-.46-1-1.06.38-1,.95-1S241.93,246.08,242,246.69Z" transform="translate(-199.19 -153.8)"/><path class="cls-1" d="M239.59,254.83c.26,0,.46.07.46.37s-.1.47-.37.5a.43.43,0,0,1-.52-.46C239.14,255,239.33,254.85,239.59,254.83Z" transform="translate(-199.19 -153.8)"/><path class="cls-1" d="M237,254.87l.36.17-.34-.19Z" transform="translate(-199.19 -153.8)"/><path class="cls-1" d="M360.5,236.57c.53.2.84.3,1.25,0a9.9,9.9,0,0,1,6.5-2.53c.18,0,.42,0,.49-.17s-.13-.44-.31-.56c-.42-.27-.86-.49-1.47-.83a2.91,2.91,0,0,1,2.76,2c1.24,3.53-1,5.91-4.85,5.11A5.91,5.91,0,0,1,360.5,236.57Z" transform="translate(-199.19 -153.8)"/><path class="cls-1" d="M358.55,241.4c-.67,0-.95.57-1.41.93-.16-.45.23-.62.43-.83,1.08-1.11,2.8-1.22,4.48-.32a2.86,2.86,0,0,1,1.71,3.47,7.09,7.09,0,0,1-3.08,4.66,2,2,0,0,1-1.5.45c.14-.29.45-.45.24-.88C358.05,246.06,358.06,244.62,358.55,241.4Z" transform="translate(-199.19 -153.8)"/><path class="cls-1" d="M373.57,234.5c-.1.37-.37.68.09.95a10.32,10.32,0,0,1,4.69,6.08c.81-.35.73-1.13,1-1.79a2.37,2.37,0,0,1-.56,2.31,4.78,4.78,0,0,1-3.87,1.39,2.62,2.62,0,0,1-2.3-1.67,7.51,7.51,0,0,1-.11-6.14A1.76,1.76,0,0,1,373.57,234.5Z" transform="translate(-199.19 -153.8)"/><path class="cls-1" d="M362.65,252.6c-.24.9.29,1.44.55,2.08-1.49-1.18-1.49-3.11,0-4.75s2.94-1.88,4.78-.62a7.12,7.12,0,0,1,3.07,4.55,1.73,1.73,0,0,1-1.16,2.26l-.06-.08s.09,0,.12,0a1.33,1.33,0,0,0,.77-1.3c0-.35-.07-.6-.53-.52A10.45,10.45,0,0,1,362.65,252.6Z" transform="translate(-199.19 -153.8)"/><path class="cls-1" d="M379.86,245.65c-1.19-.51-1.36.17-1.56,1a10,10,0,0,1-3.16,5.22c-.17.15-.54.27-.4.59s.46.22.72.26c.75.1,1.39-.36,2.15-.47-1.42.89-2.63,1.13-3.54.55a4.78,4.78,0,0,1-2.42-3.83,2.82,2.82,0,0,1,1.28-2.32C375.08,244.91,378.11,244.4,379.86,245.65Z" transform="translate(-199.19 -153.8)"/><path class="cls-1" d="M370.75,247.36a1.06,1.06,0,0,1-1.05-1.15c0-.69.44-.93,1-1a.84.84,0,0,1,.93.92A1.05,1.05,0,0,1,370.75,247.36Z" transform="translate(-199.19 -153.8)"/><path class="cls-1" d="M370.17,242.85c0-.6.29-1,.89-1s1.08.24,1.06.93-.29,1.16-1,1.13S370.16,243.49,370.17,242.85Z" transform="translate(-199.19 -153.8)"/><path class="cls-1" d="M365.63,242.63c.64,0,1.06.29,1,.88s-.19,1.15-1,1.16-1-.5-1-1.1S365.1,242.67,365.63,242.63Z" transform="translate(-199.19 -153.8)"/><path class="cls-1" d="M369.25,241.08c-.22.53-.31,1.15-1.09,1.11s-1-.55-1-1.16.43-.87,1-.89S369.09,240.52,369.25,241.08Z" transform="translate(-199.19 -153.8)"/><path class="cls-1" d="M368.15,246.58c-.06.65-.23,1.22-1,1.23s-.92-.45-1-1.05.37-1,1-1A.81.81,0,0,1,368.15,246.58Z" transform="translate(-199.19 -153.8)"/><path class="cls-3" d="M253.59,285.68c-.08,0-.22,0-.27-.1-1-1.4-2.58-2.19-3.71-3.45-.24-.27-.1-.56,0-.85a2.71,2.71,0,0,0-.09-2.75c-.38-.59-.14-.83.34-1.15a2.57,2.57,0,0,0,1.26-2.32c0-.6.14-.87.82-.89a2.76,2.76,0,0,0,2.37-1.42c.29-.51.58-.67,1.15-.35a2.87,2.87,0,0,0,2.86-.07c.23-.12.48-.37.7-.08,1,1.3,2.48,2.08,3.59,3.26a.69.69,0,0,1,.08.93,2.79,2.79,0,0,0-.28,1.9c.24,1.46.27,1.48-.72,2.69-.6.74-.23,1.89-.82,2.41s-1.76.1-2.27.85a2,2,0,0,1-2.76.79A2.58,2.58,0,0,0,253.59,285.68Z" transform="translate(-199.19 -153.8)"/><path class="cls-1" d="M367.31,267.87c1.12.84,2.49.28,3.93-.11a2,2,0,0,1,2.15,1.23,1.39,1.39,0,0,0,1.38.79,2.38,2.38,0,0,1,2.67,2.52,1.66,1.66,0,0,0,.89,1.43,2.37,2.37,0,0,1,.94,3.46,1.52,1.52,0,0,0,0,1.59,2.5,2.5,0,0,1-.78,3.62,1.56,1.56,0,0,0-.72,1.42,2.3,2.3,0,0,1-2.25,2.49,2.14,2.14,0,0,0-1.94,1.12,2.17,2.17,0,0,1-3,.92,2.3,2.3,0,0,0-2.26,0,2.19,2.19,0,0,1-3.1-.81,2,2,0,0,0-1.76-1,2.18,2.18,0,0,1-2.37-2.28,2,2,0,0,0-1.06-1.72,2.23,2.23,0,0,1-.88-3.19,2,2,0,0,0,0-1.93,2.35,2.35,0,0,1,.91-3.38,1.6,1.6,0,0,0,.84-1.48,2.17,2.17,0,0,1,2.15-2.49,2.34,2.34,0,0,0,2-1.26A2.12,2.12,0,0,1,367.31,267.87Zm4.54,2.85a2.59,2.59,0,0,1-2.29.6,2,2,0,0,0-2.76.8c-.51.75-1.72.36-2.27.85s-.22,1.66-.82,2.4c-1,1.21-1,1.24-.72,2.7a2.76,2.76,0,0,1-.28,1.89.69.69,0,0,0,.08.93c1.11,1.19,2.59,2,3.59,3.27.22.29.46,0,.7-.09a2.87,2.87,0,0,1,2.86-.07c.57.33.85.17,1.15-.35a2.73,2.73,0,0,1,2.36-1.41c.68,0,.84-.29.82-.9a2.6,2.6,0,0,1,1.27-2.32c.48-.32.72-.56.34-1.15a2.69,2.69,0,0,1-.09-2.74c.14-.29.28-.58,0-.85-1.13-1.27-2.71-2.06-3.71-3.46C372.07,270.75,371.93,270.75,371.85,270.72Z" transform="translate(-199.19 -153.8)"/><path class="cls-1" d="M409.19,282.23" transform="translate(-199.19 -153.8)"/><path class="cls-1" d="M397.19,294.45" transform="translate(-199.19 -153.8)"/><path class="cls-1" d="M382.92,284.6" transform="translate(-199.19 -153.8)"/><polyline class="cls-1" points="141.72 41.46 146.87 42.06 145.27 40.26 142.45 39.96 141.72 41.01"/></svg>