<svg id="Capa_1" data-name="Capa 1" xmlns="http://www.w3.org/2000/svg" viewBox="0 0 371.5 175.47"><defs><style>.cls-1{fill:#0792c8;}.cls-2{fill:#245278;}.cls-11,.cls-3{fill:#1d1d1b;}.cls-3{stroke:#1d1d1b;}.cls-10,.cls-11,.cls-3,.cls-7{stroke-miterlimit:10;}.cls-4{fill:#5c5d53;}.cls-5{fill:#4b4c47;}.cls-6{fill:#dcdcdc;}.cls-10,.cls-7{fill:none;}.cls-7{stroke:#fff;}.cls-8{fill:#696969;}.cls-9{fill:#222323;}.cls-10{stroke:#696969;}.cls-11{stroke:#3c3c3b;}.cls-12{fill:#252622;}</style></defs><title>Error - 404</title><rect class="cls-1" width="371.5" height="175.47"/><ellipse class="cls-2" cx="188.23" cy="149.41" rx="169.66" ry="15.14"/><path class="cls-3" d="M399.33,139.7h30.81l-41.67,83.55v4.07h29.2l1.25-31.24h29.49v31.24h12.21v26.49H448.41v23.1H417l-1.35-25.14H355.18V227.32Z" transform="translate(-113.26 -124.87)"/><polygon class="cls-4" points="133.29 147.02 243.93 146.55 248.77 152.85 129.23 152.85 133.29 147.02"/><path class="cls-4" d="M378,220.08c.58,23.46-11.41,41.13-17.05,48.4-.55.66-1.42,1.67-2.58,2.84-.37.38-1.54,1.47-1.15,1.1h0c6.89-.93-38.69,5.34-55.33,5.29a495.51,495.51,0,0,1-55.57-3.79h0l-2.67-2.7c-5.64-6.69-19.95-25.52-19.39-51.14.8-36.35,31.33-76.87,76.87-76.87C346.86,143.21,377.1,184.1,378,220.08Z" transform="translate(-113.26 -124.87)"/><path class="cls-5" d="M364.07,219.73c0,21.51-11.49,45.71-30.4,53.89-8.28,3.59-16.81,3.64-29.9,3.73s-23.63.15-33.34-4c-18.91-8.16-32.26-31.32-32.28-53.58,0-30.73,26.31-63,63-63A63,63,0,0,1,364.07,219.73Z" transform="translate(-113.26 -124.87)"/><circle class="cls-6" cx="188.36" cy="95.87" r="53.05"/><path class="cls-7" d="M293.72,259.13" transform="translate(-113.26 -124.87)"/><path class="cls-7" d="M266.91,248.15" transform="translate(-113.26 -124.87)"/><path class="cls-7" d="M190.47,212.94" transform="translate(-113.26 -124.87)"/><path class="cls-8" d="M299.21,242.85a7.89,7.89,0,0,1,1.44-1.73c.66-.6,1.15-1,1.72-1,.36,0,.57.25,1.15.86s1.26,1.32,1.73,1.83l12.38,14.77a4.81,4.81,0,0,1,1.73,4.7,3.79,3.79,0,0,1-1,1.64l-.77.86a52.94,52.94,0,0,1-30.32,0,5.23,5.23,0,0,1-1.73-2.78,5.89,5.89,0,0,1,1.73-5.18Z" transform="translate(-113.26 -124.87)"/><path class="cls-9" d="M299.92,245.3a6.87,6.87,0,0,1,1.17-1.41c.54-.49.94-.84,1.4-.78.29,0,.46.21.94.71l1.41,1.48,10.07,12a3.89,3.89,0,0,1,1.41,3.82,3.19,3.19,0,0,1-.78,1.33l-.63.7a43.07,43.07,0,0,1-24.68,0,4.21,4.21,0,0,1-1.4-2.26,4.84,4.84,0,0,1,1.4-4.22Z" transform="translate(-113.26 -124.87)"/><path class="cls-8" d="M321.45,230.11a8.15,8.15,0,0,1-1.23-1.88c-.37-.82-.64-1.41-.4-1.94.15-.32.41-.46,1.17-.84s1.63-.81,2.25-1.11L341,216.91a4.78,4.78,0,0,1,5-.25,3.8,3.8,0,0,1,1.27,1.4l.6,1a53,53,0,0,1-9,28.95,5.21,5.21,0,0,1-3.17.83,5.92,5.92,0,0,1-4.43-3.19Z" transform="translate(-113.26 -124.87)"/><path class="cls-9" d="M324,230.16a6.7,6.7,0,0,1-1-1.53c-.3-.66-.52-1.15-.32-1.58.12-.26.33-.37.95-.68s1.33-.66,1.83-.9l14.48-6.05a3.88,3.88,0,0,1,4.07-.2,3.13,3.13,0,0,1,1,1.14l.48.8a43.12,43.12,0,0,1-7.33,23.57,4.25,4.25,0,0,1-2.58.66A4.79,4.79,0,0,1,332,242.8Z" transform="translate(-113.26 -124.87)"/><path class="cls-8" d="M281.16,230.11a8.05,8.05,0,0,0,1.22-1.88c.38-.82.64-1.41.4-1.94-.14-.32-.41-.46-1.16-.84s-1.64-.81-2.26-1.11l-17.79-7.43a4.78,4.78,0,0,0-5-.25,3.8,3.8,0,0,0-1.27,1.4l-.6,1a53,53,0,0,0,9,28.95,5.21,5.21,0,0,0,3.17.83c2.92-.23,4.35-3,4.44-3.19Z" transform="translate(-113.26 -124.87)"/><path class="cls-9" d="M278.61,230.16a6.6,6.6,0,0,0,1-1.53c.31-.66.52-1.15.33-1.58-.12-.26-.34-.37-.95-.68s-1.33-.66-1.84-.9l-14.47-6.05a3.9,3.9,0,0,0-4.08-.2,3.09,3.09,0,0,0-1,1.14l-.49.8a43.25,43.25,0,0,0,7.34,23.57,4.25,4.25,0,0,0,2.58.66,4.81,4.81,0,0,0,3.61-2.59Z" transform="translate(-113.26 -124.87)"/><path class="cls-8" d="M312.24,201.68a8.55,8.55,0,0,0,.29,2.23c.23.86.41,1.49.94,1.73.32.16.61.09,1.43-.1l2.44-.61,18.38-5.8a4.79,4.79,0,0,0,4-3,3.85,3.85,0,0,0,.07-1.89l-.19-1.14A53,53,0,0,0,314,176.75a5.26,5.26,0,0,0-2.95,1.42,5.91,5.91,0,0,0-1.33,5.3Z" transform="translate(-113.26 -124.87)"/><path class="cls-9" d="M314.16,200a7,7,0,0,0,.23,1.81c.2.71.34,1.22.77,1.42.26.12.5.07,1.17-.09l2-.49,15-4.73a3.87,3.87,0,0,0,3.24-2.47,3.11,3.11,0,0,0,.06-1.53l-.15-.93a43.12,43.12,0,0,0-8.84-7.78,43.58,43.58,0,0,0-12-5.5,4.34,4.34,0,0,0-2.41,1.16,4.81,4.81,0,0,0-1.08,4.31Q313.15,192.58,314.16,200Z" transform="translate(-113.26 -124.87)"/><path class="cls-8" d="M290.77,201.45a8.18,8.18,0,0,1-.06,2.24c-.14.89-.26,1.53-.76,1.83-.3.18-.6.15-1.44,0L286,205.2l-18.88-3.9a4.78,4.78,0,0,1-4.27-2.62,3.84,3.84,0,0,1-.26-1.87l.06-1.15a53,53,0,0,1,23.78-18.83,5.27,5.27,0,0,1,3.08,1.11,6,6,0,0,1,1.86,5.14Z" transform="translate(-113.26 -124.87)"/><path class="cls-9" d="M288.69,200a6.89,6.89,0,0,1-.05,1.83c-.12.72-.21,1.24-.61,1.49-.25.15-.49.12-1.18,0l-2-.29-15.36-3.18a3.9,3.9,0,0,1-3.48-2.13,3.08,3.08,0,0,1-.21-1.52l.05-.94a43.21,43.21,0,0,1,19.35-15.32,4.33,4.33,0,0,1,2.51.9A4.84,4.84,0,0,1,289.2,185Z" transform="translate(-113.26 -124.87)"/><circle class="cls-10" cx="181.6" cy="105.71" r="2.78"/><circle class="cls-10" cx="188.62" cy="83.43" r="2.78"/><circle class="cls-10" cx="176.62" cy="91.43" r="2.78"/><circle class="cls-10" cx="200.62" cy="91.43" r="2.78"/><circle class="cls-10" cx="195.62" cy="105.43" r="2.78"/><circle class="cls-3" cx="188.36" cy="95.79" r="5.87"/><path class="cls-5" d="M324.73,314.38" transform="translate(-113.26 -124.87)"/><path class="cls-5" d="M365.72,296.26" transform="translate(-113.26 -124.87)"/><path class="cls-4" d="M328.13,300.34" transform="translate(-113.26 -124.87)"/><path class="cls-4" d="M230.77,277.72" transform="translate(-113.26 -124.87)"/><path class="cls-4" d="M381.4,280.58" transform="translate(-113.26 -124.87)"/><path class="cls-4" d="M338.26,293.32" transform="translate(-113.26 -124.87)"/><path class="cls-4" d="M331.81,289.42" transform="translate(-113.26 -124.87)"/><path class="cls-11" d="M368.79,256.3a20.66,20.66,0,0,0-8.84-5.16" transform="translate(-113.26 -124.87)"/><path class="cls-11" d="M376.06,237.1a20.62,20.62,0,0,0-3.57-1.69,20.93,20.93,0,0,0-6.24-1.22" transform="translate(-113.26 -124.87)"/><path class="cls-11" d="M378,217.07a20.12,20.12,0,0,0-3.7-1.4,21,21,0,0,0-6.32-.71" transform="translate(-113.26 -124.87)"/><path class="cls-11" d="M373.41,198.74a19.74,19.74,0,0,0-3.8-1.1,20.65,20.65,0,0,0-6.35-.22" transform="translate(-113.26 -124.87)"/><path class="cls-11" d="M364.08,179.05a20.47,20.47,0,0,0-3.95.07,21,21,0,0,0-6.13,1.69" transform="translate(-113.26 -124.87)"/><path class="cls-11" d="M353.67,165.67a20.81,20.81,0,0,0-10.18,1" transform="translate(-113.26 -124.87)"/><path class="cls-11" d="M340.14,155a20.69,20.69,0,0,0-9.75,3.14" transform="translate(-113.26 -124.87)"/><path class="cls-11" d="M323.75,147.14a20.65,20.65,0,0,0-3.52,1.8,20.87,20.87,0,0,0-4.77,4.2" transform="translate(-113.26 -124.87)"/><path class="cls-11" d="M302.64,144a19.85,19.85,0,0,0-3.13,2.41,20.71,20.71,0,0,0-3.93,5" transform="translate(-113.26 -124.87)"/><path class="cls-11" d="M280.87,146.9a20.42,20.42,0,0,0-2.69,2.9,20.92,20.92,0,0,0-3,5.59" transform="translate(-113.26 -124.87)"/><path class="cls-11" d="M260.21,156.77a20.57,20.57,0,0,0-3.14,9.74" transform="translate(-113.26 -124.87)"/><path class="cls-11" d="M244.58,170.46a20.75,20.75,0,0,0-1,10.18" transform="translate(-113.26 -124.87)"/><path class="cls-11" d="M233.33,186.64a21.21,21.21,0,0,0,.16,4,20.94,20.94,0,0,0,1.83,6.09" transform="translate(-113.26 -124.87)"/><path class="cls-11" d="M226.86,204.51a19.17,19.17,0,0,0,.78,4.06,25.13,25.13,0,0,0,3.09,6.5" transform="translate(-113.26 -124.87)"/><path class="cls-11" d="M224.89,222.33a19.37,19.37,0,0,0,1.83,3.71,25.24,25.24,0,0,0,4.72,5.44" transform="translate(-113.26 -124.87)"/><path class="cls-11" d="M227.5,240.58a19.88,19.88,0,0,0,2.24,3.67,29.27,29.27,0,0,0,5.58,5.47" transform="translate(-113.26 -124.87)"/><path class="cls-11" d="M235,257.81a20.62,20.62,0,0,0,3.31,2.75,29.33,29.33,0,0,0,7,3.38" transform="translate(-113.26 -124.87)"/><path class="cls-3" d="M177.8,139.7h30.81l-41.67,83.55v4.07h29.2q.53-15.62,1-31.24h29.71v31.24h12.21v26.49H226.88v23.1l-32.79.11q0-12.63,0-25.25H133.65V227.32Z" transform="translate(-113.26 -124.87)"/><path class="cls-12" d="M499.08,343.58" transform="translate(-113.26 -124.87)"/><path class="cls-3" d="M198.51,302.83" transform="translate(-113.26 -124.87)"/><rect class="cls-3" x="80.81" y="71.21" width="32.97" height="80.94"/><rect class="cls-3" x="302.74" y="70.76" width="32.97" height="81.39"/></svg>